_________________________  Visit us at _________________________
  
http://p2pdl.com  ____________________________  http://p2pdl.com

 
http://i.imgur.com/4HcrQ.jpg


Release Title: Snow White and the Huntsman (2012) 

					
Genre: Action | Adventure | Drama
IMDb Rating: 6.5/10 
http://vt802.us/9S7p0


Plot: In a twist to the fairy tale, the Huntsman ordered to take Snow White into the woods to be killed winds up becoming her protector and mentor in a quest to vanquish the Evil Queen. 


Director: Rupert Sanders


Stars: Kristen Stewart, Chris Hemsworth and Charlize Theron.


Rated: PG-13 for intense sequences of violence and action, and brief sensuality.


General
Format                         : Matroska
Format version                 : Version 2
File size                      : 1.99 GiB
Duration                       : 2h 11mn
Overall bit rate               : 2 161 Kbps
Movie name                     : Snow White and the Huntsman 2012 EXTENDED 1080p BRRip  x264 6Ch-AAC - ViZNU [P2PDL]


Video
ID                             : 1
Format                         : AVC
Format/Info                    : Advanced Video Codec
Format profile                 : High@L4.1
Codec ID                       : V_MPEG4/ISO/AVC
Duration                       : 2h 11mn
Bit rate                       : 1 712 Kbps
Width                          : 1 920 pixels
Height                         : 816 pixels
Display aspect ratio           : 2.35:1
Frame rate                     : 23.976 fps
Color space                    : YUV
Chroma subsampling             : 4:2:0
Bit depth                      : 8 bits
Scan type                      : Progressive
Bits/(Pixel*Frame)             : 0.046
Stream size                    : 1.53 GiB (77%)
Writing library                : x264 core 125 r2200 999b753
Default                        : Yes


Audio
ID                             : 2
Format                         : AC-3
Format/Info                    : Audio Coding 3
Mode extension                 : CM (complete main)
Format settings, Endianness    : Big
Muxing mode                    : Header stripping
Codec ID                       : A_AC3
Duration                       : 2h 11mn
Bit rate mode                  : Constant
Bit rate                       : 448 Kbps
Channel(s)                     : 6 channels
Channel positions              : Front: L C R, Side: L R, LFE
Sampling rate                  : 44.1 KHz
Bit depth                      : 16 bits
Stream size                    : 422 MiB (21%)
Language                       : English
Default                        : Yes


Subtitle: UTF-8 English (Subtitle 1)


Screens:

 
http://i.imgbox.com/acgyGav4.png 
http://i.imgbox.com/adoAuaGK.png 
http://i.imgbox.com/abug3XIj.png 
http://i.imgbox.com/acf7wNf4.png 
http://i.imgbox.com/abwpnMIg.png 
http://i.imgbox.com/adj4BKw9.png 
http://i.imgbox.com/acdGjXF4.png 
http://i.imgbox.com/advc9jCB.png 
http://i.imgbox.com/acuACx73.png 
http://i.imgbox.com/abr3SM3G.png



Sample:

 
http://vt802.us/UmUFE


------------------------------------------------------------------------


Recommend you to use VLC player. Check sample to be sure. Enjoy!


Greets to: srkfan, Vitamin_X, MgB, Feel_Free, staff members at ExtraTorrent, TPB,KAT, 1337x, PublicHD, Ahashare,
SilverTorrent, TorrentMafia, P2PDL, and all others


Encoder Notes: Looking For Early Access To Anything You Can Provide DVDScr, R5, DVDRips, BluRay, Direct Audio, Early Music
Releases, Seedboxes, Links, Dedicated Servers anything u can provide, Advance / Promo CDs/DVDs. If You Got anything to
offer contact me at "contact@tinym.eu"


Our Facebook Group:     
http://vt802.us/mbPOi


Our Facebook Fan Page:     
http://vt802.us/0OS2J
